<?xml version="1.0" encoding="UTF-8" standalone="no"?>
<!-- Created with Inkscape (http://www.inkscape.org/) -->

<svg
   width="250mm"
   height="80.000008mm"
   viewBox="0 0 250 80.000008"
   version="1.1"
   id="svg1"
   xml:space="preserve"
   xmlns="http://www.w3.org/2000/svg"
   xmlns:svg="http://www.w3.org/2000/svg"><defs
     id="defs1" /><g
     id="layer1"
     transform="translate(66.620499,208.18901)"><g
       id="g2"
       transform="matrix(8.1410256,0,0,8.1410256,-34.418237,44.180011)"><text
         xml:space="preserve"
         style="font-style:normal;font-variant:normal;font-weight:normal;font-stretch:normal;font-size:0.866668px;font-family:Arial, sans-serif;-inkscape-font-specification:'Arial, sans-serif';text-align:start;writing-mode:lr-tb;direction:ltr;text-anchor:start;fill:#000000;stroke-width:0.0325"
         x="26.198257"
         y="3.1624563"
         id="text2"><tspan
           id="tspan2"
           style="stroke-width:0.0325"
           x="26.198257"
           y="3.1624563" /></text><g
         id="g6"><g
           id="g7"><g
             id="g8"><g
               id="g9"><g
                 id="g12"><rect
                   style="fill:none;fill-opacity:1;stroke-width:0.0150877"
                   id="rect7"
                   width="30.708662"
                   height="9.8267717"
                   x="-3.9555533"
                   y="-30.999659" /><g
                   id="g10"><g
                     id="g11"><g
                       id="g5"
                       transform="matrix(0.33070866,0,0,0.28416405,-2.0897024,-29.780405)"><g
                         id="g1"><path
                           style="fill:#2e3a87"
                           d="m 19,24.968 v 1 H 7 v -1 c 0,-0.551 0.449,-1 1,-1 h 2.013 C 10.066,22.72 10.876,21.678 12,21.279 V 9.554 C 11.473,9.221 11.12,8.637 11.12,7.967 h 0.88 2 0.88 c 0,0.67 -0.353,1.254 -0.88,1.587 v 11.724 c 1.124,0.399 1.934,1.441 1.987,2.689 H 18 c 0.551,0.001 1,0.45 1,1.001 z m 7,-9.001 c -0.733,2.064 -2.685,3.553 -5,3.553 -2.315,0 -4.267,-1.49 -5,-3.553 h 1.154 l 3.378,-8.953 c 0.146,-0.39 0.789,-0.39 0.936,0 l 3.378,8.953 z m -2.223,0 L 21,8.608 l -2.777,7.36 c -0.411,2.319 4.862,3.9 5.554,0 z M 5,5.978 C 5.453,5.978 5.822,5.675 5.95,5.264 6.281,5.138 6.62,4.968 6.968,4.792 7.733,4.406 8.6,3.967 9.5,3.967 c 0.864,0 1.404,0.399 1.713,0.739 -0.012,0.086 -0.026,0.172 -0.026,0.261 0,1.001 0.812,1.813 1.813,1.813 1.001,0 1.813,-0.812 1.813,-1.813 0,-0.089 -0.014,-0.174 -0.026,-0.26 0.308,-0.339 0.848,-0.74 1.713,-0.74 0.9,0 1.767,0.438 2.531,0.824 0.349,0.176 0.688,0.346 1.019,0.472 0.128,0.411 0.497,0.714 0.95,0.714 0.558,0 1.01,-0.452 1.01,-1.01 0,-0.558 -0.452,-1.01 -1.01,-1.01 -0.288,0 -0.545,0.124 -0.729,0.318 C 20.024,4.171 19.757,4.038 19.482,3.899 18.618,3.462 17.639,2.967 16.5,2.967 15.504,2.967 14.81,3.346 14.339,3.754 14.128,3.521 13.858,3.347 13.551,3.248 13.924,3.048 14.186,2.667 14.186,2.216 14.186,1.561 13,0.032 13,0.032 c 0,0 -1.186,1.529 -1.186,2.184 0,0.452 0.262,0.832 0.635,1.032 C 12.142,3.346 11.872,3.521 11.661,3.754 11.19,3.346 10.496,2.967 9.5,2.967 8.361,2.967 7.381,3.462 6.517,3.899 6.242,4.039 5.976,4.172 5.729,4.275 5.545,4.082 5.288,3.957 5,3.957 c -0.558,0 -1.01,0.452 -1.01,1.01 0,0.558 0.452,1.011 1.01,1.011 z m 0,13.543 c -2.315,0 -4.267,-1.49 -5,-3.553 H 1.154 L 4.532,7.015 c 0.146,-0.39 0.789,-0.39 0.936,0 l 3.378,8.953 H 10 C 9.267,18.031 7.315,19.521 5,19.521 Z M 7.777,15.967 5,8.608 2.223,15.968 c 0.692,4.089 5.965,2.431 5.554,0 z"
                           id="path1" /></g><text
                         style="font-size:6.5px;font-family:Arial, sans-serif;white-space:pre"
                         x="3.102"
                         y="17.295"
                         id="text1">€</text><text
                         style="font-size:6.5px;font-family:Arial, sans-serif;white-space:pre"
                         x="19.153999"
                         y="16.487"
                         id="text3">§</text></g><text
                       xml:space="preserve"
                       style="font-style:normal;font-variant:normal;font-weight:normal;font-stretch:normal;font-size:1.05671px;line-height:1;font-family:Arial, sans-serif;-inkscape-font-specification:'Arial, sans-serif';text-align:start;letter-spacing:0.0495332px;word-spacing:0px;writing-mode:lr-tb;direction:ltr;text-anchor:start;white-space:pre;inline-size:10.1801;display:inline;fill:#2e3a87;fill-opacity:1;stroke-width:0.0325"
                       x="26.107845"
                       y="4.9707289"
                       id="text4"
                       transform="matrix(2.3254187,0,0,1.9946803,-51.64034,-37.379003)"><tspan
                         x="26.107845"
                         y="4.9707289"
                         id="tspan4"><tspan
                           style="font-family:Calibri;-inkscape-font-specification:Calibri"
                           id="tspan1">Upadłość
</tspan></tspan><tspan
                         x="26.107845"
                         y="6.0546537"
                         id="tspan6"><tspan
                           style="font-family:Calibri;-inkscape-font-specification:Calibri"
                           id="tspan5">Konsumencka
</tspan></tspan><tspan
                         x="26.107845"
                         y="7.1385789"
                         id="tspan8"><tspan
                           style="font-family:Calibri;-inkscape-font-specification:Calibri"
                           id="tspan7">Zalewscy</tspan></tspan></text></g></g></g></g></g></g></g></g></g></svg>
